<svg width="100%" height="100%" viewBox="0 0 22 22" fill="none" xmlns="http://www.w3.org/2000/svg">
<path d="M11 22C17.0752 22 22 17.0752 22 11C22 4.92479 17.0752 0 11 0C4.92479 0 0 4.92479 0 11C0 17.0752 4.92479 22 11 22Z" fill="#E1011C"/>
<path d="M6.18916 6.60001V9.99637C6.76514 9.37983 7.45559 9.06948 8.25632 9.06948C8.66873 9.06948 9.03805 9.1402 9.36937 9.2804C9.70162 9.41977 9.94999 9.59865 10.1177 9.81581C10.2864 10.0351 10.4004 10.2751 10.462 10.5397C10.5232 10.803 10.5538 11.2128 10.5538 11.7686V15.4H8.76419V12.1293C8.76419 11.4803 8.73175 11.0693 8.66363 10.8945C8.59981 10.7234 8.47321 10.5767 8.30451 10.4785C8.13213 10.3741 7.91758 10.3225 7.65855 10.3225C7.36198 10.3225 7.096 10.3891 6.86477 10.5214C6.62845 10.6545 6.45885 10.8534 6.35134 11.1192C6.24198 11.3854 6.1873 11.7786 6.18916 12.299L6.1873 15.4H4.40002V6.60001H6.18962M13.2359 6.60001V9.99637C13.8123 9.37983 14.5023 9.06948 15.3026 9.06948C15.7136 9.06948 16.0857 9.1402 16.4175 9.2804C16.7483 9.41977 16.9967 9.59865 17.1635 9.81581C17.3319 10.0336 17.449 10.2799 17.5078 10.5397C17.5694 10.803 17.6 11.2128 17.6 11.7686V15.4H15.8123V12.1293C15.8123 11.4803 15.7785 11.0693 15.7103 10.8945C15.6465 10.7231 15.5195 10.5764 15.3503 10.4785C15.1798 10.3741 14.9634 10.3225 14.7043 10.3225C14.4082 10.3225 14.1422 10.3891 13.9105 10.5214C13.6775 10.6545 13.5069 10.8534 13.398 11.1192C13.2905 11.3854 13.2359 11.7786 13.2359 12.299V15.4H11.4486V6.60001H13.2359Z" fill="#FEFEFE"/>
</svg>
