<svg width="100%" height="100%" viewBox="0 0 22 22" fill="currentColor" xmlns="http://www.w3.org/2000/svg">
<path fill-rule="evenodd" clip-rule="evenodd" d="M22 11C22 17.0752 17.0752 22 11 22C4.92479 22 0 17.0752 0 11C0 4.92479 4.92479 0 11 0C17.0752 0 22 4.92479 22 11ZM6.18916 9.99637V6.60001H4.40002V15.4H6.1873L6.18916 12.299C6.1873 11.7786 6.24198 11.3854 6.35134 11.1192C6.45885 10.8534 6.62845 10.6545 6.86477 10.5214C7.096 10.3891 7.36198 10.3225 7.65855 10.3225C7.91758 10.3225 8.13213 10.3741 8.30451 10.4785C8.47321 10.5767 8.59981 10.7234 8.66363 10.8945C8.73175 11.0693 8.76419 11.4803 8.76419 12.1293V15.4H10.5538V11.7686C10.5538 11.2128 10.5232 10.803 10.462 10.5397C10.4004 10.2751 10.2864 10.0351 10.1177 9.81581C9.94999 9.59865 9.70162 9.41977 9.36937 9.2804C9.03805 9.1402 8.66873 9.06948 8.25632 9.06948C7.45559 9.06948 6.76514 9.37983 6.18916 9.99637ZM13.2359 9.99637V6.60001H11.4486V15.4H13.2359V12.299C13.2359 11.7786 13.2905 11.3854 13.398 11.1192C13.5069 10.8534 13.6775 10.6545 13.9105 10.5214C14.1422 10.3891 14.4082 10.3225 14.7043 10.3225C14.9634 10.3225 15.1798 10.3741 15.3503 10.4785C15.5195 10.5764 15.6465 10.7232 15.7103 10.8945C15.7785 11.0693 15.8123 11.4803 15.8123 12.1293V15.4H17.6V11.7686C17.6 11.2128 17.5694 10.803 17.5078 10.5397C17.449 10.2799 17.3319 10.0336 17.1635 9.81581C16.9967 9.59865 16.7483 9.41977 16.4175 9.2804C16.0857 9.1402 15.7136 9.06948 15.3026 9.06948C14.5023 9.06948 13.8123 9.37983 13.2359 9.99637Z" fill="currentColor"/>
</svg>
