<svg width="100%" height="100%" viewBox="0 0 24 24" fill="currentColor" xmlns="http://www.w3.org/2000/svg">
<path fill-rule="evenodd" clip-rule="evenodd" d="M12 22C17.5228 22 22 17.5228 22 12C22 6.47715 17.5228 2 12 2C6.47715 2 2 6.47715 2 12C2 17.5228 6.47715 22 12 22ZM12 20C7.58172 20 4 16.4183 4 12C4 7.58172 7.58172 4 12 4C16.4183 4 20 7.58172 20 12C20 16.4183 16.4183 20 12 20ZM11 10.4L9.65712 11.7429C9.26659 12.1334 8.63343 12.1334 8.24291 11.7429C7.85238 11.3524 7.85238 10.7192 8.24291 10.3287L11.2835 7.28812C11.5997 6.9719 12.075 6.91173 12.4517 7.10761C12.5892 7.17735 12.7085 7.27794 12.8003 7.40026L15.7429 10.3429C16.1334 10.7334 16.1334 11.3666 15.7429 11.7571C15.3524 12.1476 14.7192 12.1476 14.3287 11.7571L13 10.4284V16C13 16.5523 12.5523 17 12 17C11.4477 17 11 16.5523 11 16V10.4Z" fill="white"/>
</svg>
