<svg width="100%" height="100%" viewBox="0 0 24 24" fill="currentColor" xmlns="http://www.w3.org/2000/svg">
<path fill-rule="evenodd" clip-rule="evenodd" d="M3 5V9C3 9.53043 3.21071 10.0391 3.58579 10.4142C3.96086 10.7893 4.46957 11 5 11H9C9.26264 11 9.52272 10.9483 9.76537 10.8478C10.008 10.7472 10.2285 10.5999 10.4142 10.4142C10.5999 10.2285 10.7472 10.008 10.8478 9.76537C10.9483 9.52272 11 9.26264 11 9V5C11 4.73736 10.9483 4.47728 10.8478 4.23463C10.7472 3.99198 10.5999 3.7715 10.4142 3.58579C10.2285 3.40007 10.008 3.25275 9.76537 3.15224C9.52272 3.05173 9.26264 3 9 3H5C4.73736 3 4.47729 3.05173 4.23463 3.15224C3.99198 3.25275 3.7715 3.40007 3.58579 3.58579C3.40007 3.7715 3.25275 3.99198 3.15224 4.23463C3.05173 4.47728 3 4.73736 3 5ZM5 9V5H9L9 9H5ZM13 15V19C13 19.5304 13.2107 20.0391 13.5858 20.4142C13.9609 20.7893 14.4696 21 15 21H19C19.2626 21 19.5227 20.9483 19.7654 20.8478C20.008 20.7472 20.2285 20.5999 20.4142 20.4142C20.5999 20.2285 20.7472 20.008 20.8478 19.7654C20.9483 19.5227 21 19.2626 21 19V15C21 14.7374 20.9483 14.4773 20.8478 14.2346C20.7472 13.992 20.5999 13.7715 20.4142 13.5858C20.2285 13.4001 20.008 13.2528 19.7654 13.1522C19.5227 13.0517 19.2626 13 19 13H15C14.7374 13 14.4773 13.0517 14.2346 13.1522C13.992 13.2528 13.7715 13.4001 13.5858 13.5858C13.4001 13.7715 13.2528 13.992 13.1522 14.2346C13.0517 14.4773 13 14.7374 13 15ZM15 19V15H19L19 19H15ZM3 19V15C3 14.7374 3.05173 14.4773 3.15224 14.2346C3.25275 13.992 3.40007 13.7715 3.58579 13.5858C3.7715 13.4001 3.99198 13.2528 4.23463 13.1522C4.47729 13.0517 4.73736 13 5 13H9C9.26264 13 9.52272 13.0517 9.76537 13.1522C10.008 13.2528 10.2285 13.4001 10.4142 13.5858C10.5999 13.7715 10.7472 13.992 10.8478 14.2346C10.9483 14.4773 11 14.7374 11 15V19C11 19.2626 10.9483 19.5227 10.8478 19.7654C10.7472 20.008 10.5999 20.2285 10.4142 20.4142C10.2285 20.5999 10.008 20.7472 9.76537 20.8478C9.52272 20.9483 9.26264 21 9 21H5C4.46957 21 3.96086 20.7893 3.58579 20.4142C3.21071 20.0391 3 19.5304 3 19ZM5 15V19H9L9 15H5ZM13 5V9C13 9.53043 13.2107 10.0391 13.5858 10.4142C13.9609 10.7893 14.4696 11 15 11H19C19.2626 11 19.5227 10.9483 19.7654 10.8478C20.008 10.7472 20.2285 10.5999 20.4142 10.4142C20.5999 10.2285 20.7472 10.008 20.8478 9.76537C20.9483 9.52272 21 9.26264 21 9V5C21 4.73736 20.9483 4.47728 20.8478 4.23463C20.7472 3.99198 20.5999 3.7715 20.4142 3.58579C20.2285 3.40007 20.008 3.25275 19.7654 3.15224C19.5227 3.05173 19.2626 3 19 3H15C14.7374 3 14.4773 3.05173 14.2346 3.15224C13.992 3.25275 13.7715 3.40007 13.5858 3.58579C13.4001 3.7715 13.2528 3.99198 13.1522 4.23463C13.0517 4.47728 13 4.73736 13 5ZM15 9V5H19L19 9H15Z" fill="currentColor"/>
</svg>
