<svg width="100%" height="100%" viewBox="0 0 24 24" fill="currentColor" xmlns="http://www.w3.org/2000/svg">
<path fill-rule="evenodd" clip-rule="evenodd" d="M22 12C22 17.5228 17.5228 22 12 22C6.47715 22 2 17.5228 2 12C2 6.47715 6.47715 2 12 2C17.5228 2 22 6.47715 22 12ZM4 12C4 16.4183 7.58172 20 12 20C16.4183 20 20 16.4183 20 12C20 7.58172 16.4183 4 12 4C7.58172 4 4 7.58172 4 12ZM13 8C13 8.55229 12.5523 9 12 9C11.4477 9 11 8.55229 11 8C11 7.44772 11.4477 7 12 7C12.5523 7 13 7.44772 13 8ZM13 15V11C13 10.4477 12.5523 10 12 10H11C10.4477 10 10 10.4477 10 11C10 11.5523 10.4477 12 11 12V16C11 16.5523 11.4477 17 12 17H13C13.5523 17 14 16.5523 14 16C14 15.4477 13.5523 15 13 15Z" fill="currentColor"/>
</svg>
