<svg width="100%" height="100%" viewBox="0 0 241 241" fill="currentColor" xmlns="http://www.w3.org/2000/svg">
<path fill-rule="evenodd" clip-rule="evenodd" d="M240.2 120.1C240.2 186.429 186.429 240.2 120.1 240.2C53.7706 240.2 0 186.429 0 120.1C0 53.7706 53.7706 0 120.1 0C186.429 0 240.2 53.7706 240.2 120.1ZM124.3 88.6C112.6 93.5 89.3 103.6 54.3 118.8C48.7 121.1 45.7 123.3 45.4 125.5C44.9572 129.22 49.6134 130.665 55.8947 132.614C56.7052 132.866 57.5428 133.126 58.4 133.4C64.6 135.4 72.8 137.7 77.1 137.8C81 137.9 85.3 136.3 90.1 133C122.8 110.9 139.6 99.7 140.7 99.5C141.5 99.3 142.5 99.1 143.2 99.7C143.9 100.3 143.9 101.5 143.8 101.8C143.323 103.788 123.814 121.899 114.936 130.141C112.65 132.263 111.069 133.731 110.7 134.1C109.762 135.065 108.807 135.98 107.889 136.859C102.149 142.353 97.8413 146.476 108.1 153.2C112.764 156.279 116.526 158.846 120.23 161.373C124.707 164.427 129.1 167.424 134.9 171.2C136.266 172.097 137.575 173.028 138.851 173.936C143.833 177.48 148.328 180.678 153.9 180.2C157.1 179.9 160.4 176.9 162.1 167.9C166.1 146.7 173.9 100.6 175.7 81.6C175.9 80 175.7 77.9 175.5 76.9C175.3 75.9 175 74.6 173.8 73.6C172.3 72.4 170.1 72.2 169.1 72.2C164.6 72.3 157.6 74.7 124.3 88.6Z" fill="currentColor"/>
</svg>
