<svg width="100%" height="100%" viewBox="0 0 148 149" fill="currentColor" xmlns="http://www.w3.org/2000/svg">
<path fill-rule="evenodd" clip-rule="evenodd" d="M10.439 110.322L0 148.436L39.004 138.208C49.751 144.068 61.85 147.157 74.163 147.162H74.1951C114.746 147.162 147.755 114.162 147.773 73.609C147.78 53.955 140.136 35.475 126.243 21.572C112.35 7.66901 93.877 0.0100098 74.196 0C33.639 0 0.63501 32.994 0.618042 73.55C0.602417 86.4575 3.98987 99.1411 10.439 110.322ZM13.04 73.555C13.052 39.848 40.485 12.425 74.218 12.425C75.2223 12.4226 76.2253 12.4452 77.2263 12.4925C84.2332 12.8232 91.1377 14.3654 97.6313 17.0581C105.053 20.1354 111.79 24.6543 117.453 30.353C123.148 36.0207 127.661 42.7617 130.733 50.1859C132.896 55.4144 134.314 60.9087 134.955 66.5076C135.167 68.362 135.294 70.228 135.334 72.0995C135.345 72.6006 135.35 73.1022 135.348 73.604V73.605C135.347 75.7118 135.239 77.7941 135.029 79.8466C131.881 110.635 105.795 134.74 74.1949 134.74H74.172C65.584 134.735 57.1265 132.93 49.3564 129.476C47.1958 128.516 45.0884 127.428 43.046 126.216L40.811 124.892L17.665 130.961L23.8438 108.403L22.389 106.09C16.2646 96.3447 13.0233 85.065 13.04 73.555ZM51.6689 39.625C52.978 39.678 54.428 39.74 55.806 42.801C56.7443 44.8888 58.3214 48.7758 59.5815 51.8815C60.516 54.1844 61.2761 56.0577 61.472 56.449C61.932 57.368 62.2369 58.444 61.625 59.669C61.5309 59.8574 61.4441 60.035 61.3612 60.2045C60.9052 61.1372 60.5684 61.826 59.7889 62.734C59.4778 63.0966 59.1561 63.4877 58.8347 63.8785C58.2048 64.6441 57.5762 65.4084 57.03 65.954C56.108 66.87 55.1479 67.866 56.222 69.705C57.296 71.544 60.985 77.562 66.45 82.435C72.3322 87.6798 77.4401 89.8944 80.026 91.0155C80.528 91.2332 80.9349 91.4096 81.234 91.559C83.074 92.478 84.145 92.324 85.218 91.097C86.291 89.87 89.8099 85.731 91.037 83.891C92.264 82.051 93.489 82.356 95.174 82.97C96.859 83.584 105.896 88.031 107.736 88.951C108.098 89.1319 108.436 89.295 108.749 89.446C110.029 90.0628 110.892 90.4792 111.261 91.097C111.72 91.866 111.719 95.544 110.188 99.837C108.657 104.13 101.152 108.271 97.78 108.577C97.4554 108.606 97.1328 108.644 96.8009 108.683C93.6849 109.049 89.7529 109.511 75.719 103.977C58.433 97.1605 47.0399 80.2606 44.7023 76.7929C44.5128 76.5119 44.3828 76.3191 44.314 76.227L44.2921 76.1977C43.2963 74.8662 36.808 66.1903 36.808 57.214C36.808 48.7517 40.9666 44.3141 42.8815 42.2706C43.0133 42.1299 43.1345 42.0005 43.243 41.882C44.927 40.042 46.9189 39.582 48.145 39.582L51.6689 39.625Z" fill="currentColor"/>
</svg>
